<svg width="51" height="51" viewBox="0 0 51 51" fill="none" xmlns="http://www.w3.org/2000/svg">
<circle cx="25.5" cy="25.5" r="25" fill="white" stroke="black"/>
<path d="M30.3958 15H21.2792C20.6747 15 20.095 15.2401 19.6675 15.6675C19.2401 16.095 19 16.6747 19 17.2792V36.5L24.8726 33.7574C25.1747 33.6163 25.504 33.5431 25.8375 33.5431C26.1709 33.5431 26.5002 33.6163 26.8023 33.7574L32.6749 36.5V17.2792C32.6749 16.6747 32.4348 16.095 32.0074 15.6675C31.5799 15.2401 31.0002 15 30.3958 15ZM31.1555 34.1145L27.4405 32.3823C26.9384 32.1486 26.3913 32.0275 25.8375 32.0275C25.2836 32.0275 24.7365 32.1486 24.2345 32.3823L20.5194 34.1145V19.5583H31.1555V34.1145ZM31.1555 18.0389H20.5194V17.2792C20.5194 17.0777 20.5995 16.8844 20.742 16.742C20.8844 16.5995 21.0777 16.5194 21.2792 16.5194H30.3958C30.5972 16.5194 30.7905 16.5995 30.933 16.742C31.0754 16.8844 31.1555 17.0777 31.1555 17.2792V18.0389Z" fill="black"/>
<path d="M25.0777 28.3558C25.4789 28.3561 25.864 28.1977 26.1489 27.9151L29.4157 24.6559L28.3369 23.5771L25.0777 26.8439L23.338 25.0966L22.2592 26.1754L24.0065 27.9151C24.2914 28.1977 24.6765 28.3561 25.0777 28.3558Z" fill="black"/>
</svg>
