<svg width="51" height="51" viewBox="0 0 51 51" fill="none" xmlns="http://www.w3.org/2000/svg">
<circle cx="25.5" cy="25.5" r="25" fill="white" stroke="black"/>
<path d="M18.9615 24.6667V24H18.3077V24.6667H18.9615ZM24.1923 24.6667V24H23.5385V24.6667H24.1923ZM24.1923 30H23.5385V30.6667H24.1923V30ZM33.3462 20.6667H34V20.3905L33.8086 20.1953L33.3462 20.6667ZM29.4231 16.6667L29.8855 16.1953L29.6939 16H29.4231V16.6667ZM18.9615 25.3333H20.2692V24H18.9615V25.3333ZM19.6154 30.6667V27.3333H18.3077V30.6667H19.6154ZM19.6154 27.3333V24.6667H18.3077V27.3333H19.6154ZM20.2692 26.6667H18.9615V28H20.2692V26.6667ZM20.9231 26C20.9231 26.3682 20.6303 26.6667 20.2692 26.6667V28C21.3526 28 22.2308 27.1046 22.2308 26H20.9231ZM20.2692 25.3333C20.6303 25.3333 20.9231 25.6318 20.9231 26H22.2308C22.2308 24.8954 21.3526 24 20.2692 24V25.3333ZM23.5385 24.6667V30H24.8462V24.6667H23.5385ZM24.1923 30.6667H25.5V29.3333H24.1923V30.6667ZM27.4615 28.6667V26H26.1538V28.6667H27.4615ZM25.5 24H24.1923V25.3333H25.5V24ZM27.4615 26C27.4615 24.8954 26.5833 24 25.5 24V25.3333C25.8611 25.3333 26.1538 25.6318 26.1538 26H27.4615ZM25.5 30.6667C26.5833 30.6667 27.4615 29.7712 27.4615 28.6667H26.1538C26.1538 29.0349 25.8611 29.3333 25.5 29.3333V30.6667ZM28.7692 24V30.6667H30.0769V24H28.7692ZM29.4231 25.3333H32.6923V24H29.4231V25.3333ZM29.4231 28H31.3846V26.6667H29.4231V28ZM18.3077 22.6667V18H17V22.6667H18.3077ZM32.6923 20.6667V22.6667H34V20.6667H32.6923ZM18.9615 17.3333H29.4231V16H18.9615V17.3333ZM28.9607 17.1381L32.8838 21.1381L33.8086 20.1953L29.8855 16.1953L28.9607 17.1381ZM18.3077 18C18.3077 17.6318 18.6004 17.3333 18.9615 17.3333V16C17.8782 16 17 16.8954 17 18H18.3077ZM17 32V34H18.3077V32H17ZM18.9615 36H32.0385V34.6667H18.9615V36ZM34 34V32H32.6923V34H34ZM32.0385 36C33.1218 36 34 35.1045 34 34H32.6923C32.6923 34.3681 32.3995 34.6667 32.0385 34.6667V36ZM17 34C17 35.1045 17.8782 36 18.9615 36V34.6667C18.6004 34.6667 18.3077 34.3681 18.3077 34H17Z" fill="black"/>
</svg>
