<svg width="51" height="51" viewBox="0 0 51 51" fill="none" xmlns="http://www.w3.org/2000/svg">
<circle cx="25.5" cy="25.5" r="25" fill="white" stroke="black"/>
<path fill-rule="evenodd" clip-rule="evenodd" d="M17.7121 34.3775L17.7504 34.3783L17.7826 34.3752C17.926 34.3569 18.5008 34.2444 18.5008 33.6129C18.5008 29.8082 21.524 26.7245 25.2541 26.7245C25.7501 26.7245 26.2499 26.7245 26.7459 26.7245C30.4752 26.7245 33.4993 29.8082 33.4993 33.6129C33.4993 33.629 33.4992 33.6443 33.5007 33.6596C33.512 33.9084 33.6156 34.0706 33.7431 34.177C33.8767 34.3025 34.0545 34.3783 34.2496 34.3783C34.2496 34.3783 35 34.3347 35 33.6129C35 28.9632 31.3044 25.1937 26.7459 25.1937C26.2499 25.1937 25.7501 25.1937 25.2541 25.1937C20.6956 25.1937 17 28.9632 17 33.6129C17 33.5746 17.0023 33.5425 17.006 33.5157C17.0023 33.5471 17 33.58 17 33.6129C17 34.0224 17.3152 34.3569 17.7121 34.3775Z" fill="black"/>
<path fill-rule="evenodd" clip-rule="evenodd" d="M25.9917 16C23.9184 16 22.2354 17.7167 22.2354 19.8315C22.2354 21.9462 23.9184 23.663 25.9917 23.663C28.065 23.663 29.7481 21.9462 29.7481 19.8315C29.7481 17.7167 28.065 16 25.9917 16ZM25.9917 17.5308C27.2366 17.5308 28.2474 18.5617 28.2474 19.8315C28.2474 21.1013 27.2366 22.1322 25.9917 22.1322C24.7469 22.1322 23.7361 21.1013 23.7361 19.8315C23.7361 18.5617 24.7469 17.5308 25.9917 17.5308Z" fill="black"/>
</svg>
