<svg width="51" height="51" viewBox="0 0 51 51" fill="none" xmlns="http://www.w3.org/2000/svg">
<circle cx="25.5" cy="25.5" r="25" fill="white" stroke="black"/>
<path fill-rule="evenodd" clip-rule="evenodd" d="M29.6084 16L28.6799 18.1799L33.7068 23.2067L35.8713 22.2924L29.6084 16Z" fill="black"/>
<path fill-rule="evenodd" clip-rule="evenodd" d="M20.8961 23.2055C20.8961 23.2055 22.0079 28.1886 17 33.1965C17.1147 33.3124 17.2366 33.433 17.3572 33.5537L25.3576 25.5533C25.2511 25.3251 25.1861 25.0731 25.1861 24.8046C25.1861 23.8253 25.9809 23.0305 26.9602 23.0305C27.9396 23.0305 28.7344 23.8253 28.7344 24.8046C28.7344 25.784 27.9396 26.5788 26.9602 26.5788C26.6823 26.5788 26.4221 26.509 26.1867 26.3943L18.1934 34.3899C18.3519 34.5484 18.4737 34.6702 18.6535 34.85C23.6792 29.8255 28.6634 30.9563 28.6634 30.9563L31.9256 23.7957L28.0283 19.8984L20.8961 23.2055Z" fill="black"/>
</svg>
